<svg width="585" height="279" viewBox="0 0 585 279" fill="none" xmlns="http://www.w3.org/2000/svg">
<circle cx="139.5" cy="139.5" r="138" stroke="black" stroke-width="3"/>
<circle cx="445.5" cy="139.5" r="138" stroke="black" stroke-width="3"/>
<path d="M145.929 51.1818V73H143.287V53.9517H143.159L137.832 57.4886V54.804L143.287 51.1818H145.929Z" fill="black"/>
<path d="M136.259 140V138.082L143.46 130.199C144.305 129.276 145.001 128.473 145.548 127.791C146.095 127.102 146.5 126.456 146.763 125.852C147.033 125.241 147.168 124.602 147.168 123.935C147.168 123.168 146.983 122.504 146.614 121.942C146.251 121.381 145.754 120.948 145.122 120.643C144.49 120.337 143.78 120.185 142.991 120.185C142.153 120.185 141.422 120.359 140.797 120.707C140.179 121.048 139.7 121.527 139.359 122.145C139.025 122.763 138.858 123.487 138.858 124.318H136.344C136.344 123.04 136.638 121.918 137.228 120.952C137.817 119.986 138.62 119.233 139.636 118.693C140.658 118.153 141.805 117.884 143.077 117.884C144.355 117.884 145.488 118.153 146.475 118.693C147.462 119.233 148.237 119.961 148.798 120.877C149.359 121.793 149.639 122.812 149.639 123.935C149.639 124.737 149.494 125.522 149.202 126.289C148.918 127.049 148.421 127.898 147.711 128.835C147.008 129.766 146.031 130.902 144.781 132.244L139.881 137.486V137.656H150.023V140H136.259Z" fill="black"/>
<path d="M439.259 140V138.082L446.46 130.199C447.305 129.276 448.001 128.473 448.548 127.791C449.095 127.102 449.5 126.456 449.763 125.852C450.033 125.241 450.168 124.602 450.168 123.935C450.168 123.168 449.983 122.504 449.614 121.942C449.251 121.381 448.754 120.948 448.122 120.643C447.49 120.337 446.78 120.185 445.991 120.185C445.153 120.185 444.422 120.359 443.797 120.707C443.179 121.048 442.7 121.527 442.359 122.145C442.025 122.763 441.858 123.487 441.858 124.318H439.344C439.344 123.04 439.638 121.918 440.228 120.952C440.817 119.986 441.62 119.233 442.636 118.693C443.658 118.153 444.805 117.884 446.077 117.884C447.355 117.884 448.488 118.153 449.475 118.693C450.462 119.233 451.237 119.961 451.798 120.877C452.359 121.793 452.639 122.812 452.639 123.935C452.639 124.737 452.494 125.522 452.202 126.289C451.918 127.049 451.421 127.898 450.711 128.835C450.008 129.766 449.031 130.902 447.781 132.244L442.881 137.486V137.656H453.023V140H439.259Z" fill="black"/>
<path d="M142.631 207.298C141.224 207.298 139.971 207.057 138.87 206.574C137.776 206.091 136.906 205.42 136.26 204.56C135.621 203.694 135.273 202.689 135.216 201.545H137.901C137.957 202.249 138.199 202.856 138.625 203.367C139.051 203.871 139.609 204.262 140.298 204.539C140.987 204.816 141.75 204.955 142.588 204.955C143.526 204.955 144.357 204.791 145.081 204.464C145.805 204.138 146.374 203.683 146.786 203.101C147.197 202.518 147.403 201.844 147.403 201.077C147.403 200.274 147.205 199.567 146.807 198.957C146.409 198.339 145.827 197.856 145.06 197.508C144.293 197.16 143.355 196.986 142.247 196.986H140.5V194.642H142.247C143.114 194.642 143.874 194.486 144.527 194.173C145.188 193.861 145.702 193.42 146.072 192.852C146.448 192.284 146.636 191.616 146.636 190.849C146.636 190.111 146.473 189.468 146.146 188.921C145.82 188.374 145.358 187.948 144.761 187.643C144.172 187.337 143.476 187.185 142.673 187.185C141.92 187.185 141.21 187.323 140.543 187.6C139.882 187.87 139.342 188.264 138.923 188.783C138.504 189.294 138.277 189.912 138.241 190.636H135.685C135.727 189.493 136.072 188.491 136.718 187.632C137.364 186.766 138.21 186.091 139.254 185.608C140.305 185.125 141.459 184.884 142.716 184.884C144.065 184.884 145.223 185.157 146.189 185.704C147.155 186.244 147.897 186.957 148.415 187.845C148.934 188.733 149.193 189.692 149.193 190.722C149.193 191.95 148.87 192.998 148.224 193.864C147.585 194.731 146.714 195.331 145.614 195.665V195.835C146.991 196.062 148.067 196.648 148.842 197.593C149.616 198.531 150.003 199.692 150.003 201.077C150.003 202.263 149.68 203.328 149.033 204.273C148.394 205.21 147.521 205.949 146.413 206.489C145.305 207.028 144.044 207.298 142.631 207.298Z" fill="black"/>
<path d="M445.631 207.298C444.224 207.298 442.971 207.057 441.87 206.574C440.776 206.091 439.906 205.42 439.26 204.56C438.621 203.694 438.273 202.689 438.216 201.545H440.901C440.957 202.249 441.199 202.856 441.625 203.367C442.051 203.871 442.609 204.262 443.298 204.539C443.987 204.816 444.75 204.955 445.588 204.955C446.526 204.955 447.357 204.791 448.081 204.464C448.805 204.138 449.374 203.683 449.786 203.101C450.197 202.518 450.403 201.844 450.403 201.077C450.403 200.274 450.205 199.567 449.807 198.957C449.409 198.339 448.827 197.856 448.06 197.508C447.293 197.16 446.355 196.986 445.247 196.986H443.5V194.642H445.247C446.114 194.642 446.874 194.486 447.527 194.173C448.188 193.861 448.702 193.42 449.072 192.852C449.448 192.284 449.636 191.616 449.636 190.849C449.636 190.111 449.473 189.468 449.146 188.921C448.82 188.374 448.358 187.948 447.761 187.643C447.172 187.337 446.476 187.185 445.673 187.185C444.92 187.185 444.21 187.323 443.543 187.6C442.882 187.87 442.342 188.264 441.923 188.783C441.504 189.294 441.277 189.912 441.241 190.636H438.685C438.727 189.493 439.072 188.491 439.718 187.632C440.364 186.766 441.21 186.091 442.254 185.608C443.305 185.125 444.459 184.884 445.716 184.884C447.065 184.884 448.223 185.157 449.189 185.704C450.155 186.244 450.897 186.957 451.415 187.845C451.934 188.733 452.193 189.692 452.193 190.722C452.193 191.95 451.87 192.998 451.224 193.864C450.585 194.731 449.714 195.331 448.614 195.665V195.835C449.991 196.062 451.067 196.648 451.842 197.593C452.616 198.531 453.003 199.692 453.003 201.077C453.003 202.263 452.68 203.328 452.033 204.273C451.394 205.21 450.521 205.949 449.413 206.489C448.305 207.028 447.044 207.298 445.631 207.298Z" fill="black"/>
<path d="M448.929 51.1818V73H446.287V53.9517H446.159L440.832 57.4886V54.804L446.287 51.1818H448.929Z" fill="black"/>
<line x1="160.673" y1="60.6594" x2="427.673" y2="194.659" stroke="black" stroke-width="3"/>
<line x1="160" y1="60.5" x2="427" y2="60.5" stroke="black" stroke-width="3"/>
<line x1="160.38" y1="60.5489" x2="416.38" y2="127.549" stroke="black" stroke-width="3"/>
<line x1="168.623" y1="127.548" x2="426.623" y2="60.5482" stroke="black" stroke-width="3"/>
<line x1="169" y1="127.5" x2="416" y2="127.5" stroke="black" stroke-width="3"/>
<line x1="169.377" y1="127.548" x2="427.377" y2="194.548" stroke="black" stroke-width="3"/>
<line x1="168.309" y1="194.669" x2="426.309" y2="60.6688" stroke="black" stroke-width="3"/>
<line x1="168.607" y1="194.552" x2="415.607" y2="127.552" stroke="black" stroke-width="3"/>
<line x1="169" y1="194.5" x2="427" y2="194.5" stroke="black" stroke-width="3"/>
</svg>
