<?xml version="1.0" encoding="UTF-8"?><svg id="Layer_1" xmlns="http://www.w3.org/2000/svg" viewBox="0 0 382.84 258.95"><defs><style>.cls-1{fill:#939393;}.cls-2{fill:none;stroke:#000;stroke-miterlimit:10;stroke-width:5px;}</style></defs><path class="cls-1" d="M190.28,19.75c38.69,21.6,64.85,62.93,64.85,110.38s-25.13,87.15-62.56,109.07c-38.69-21.59-64.86-62.93-64.86-110.38s25.14-87.15,62.57-109.07Z"/><path class="cls-1" d="M190.28,19.75c-37.43,21.92-62.57,62.56-62.57,109.07s26.17,88.79,64.86,110.38c-18.71,10.97-40.5,17.25-63.75,17.25-69.76,0-126.32-56.55-126.32-126.32S59.06,3.82,128.82,3.82c22.31,0,43.27,5.79,61.46,15.93Z"/><path class="cls-2" d="M190.28,19.75c38.69,21.6,64.85,62.93,64.85,110.38s-25.13,87.15-62.56,109.07c-18.71,10.97-40.5,17.25-63.75,17.25-69.76,0-126.32-56.55-126.32-126.32S59.06,3.82,128.82,3.82c22.31,0,43.27,5.79,61.46,15.93Z"/><path class="cls-2" d="M190.28,19.75c18.71-10.97,40.5-17.25,63.75-17.25,69.76,0,126.31,56.56,126.31,126.32s-56.55,126.31-126.31,126.31c-22.31,0-43.27-5.78-61.46-15.93-38.69-21.59-64.86-62.93-64.86-110.38s25.14-87.15,62.57-109.07Z"/></svg>